<svg width="320" height="100" viewBox="0 0 320 100" fill="none" xmlns="http://www.w3.org/2000/svg">
<path d="M74.4283 39.0891V59.9603H68.0322V57.1176C67.3839 58.0403 66.4987 58.7883 65.3766 59.3619C64.2794 59.9104 63.0576 60.1847 61.711 60.1847C60.1151 60.1847 58.7063 59.8356 57.4844 59.1374C56.2626 58.4143 55.315 57.3795 54.6417 56.0329C53.9685 54.6864 53.6318 53.103 53.6318 51.2827V39.0891H59.9905V50.4224C59.9905 51.8188 60.352 52.9035 61.0752 53.6765C61.7983 54.4495 62.7708 54.836 63.9926 54.836C65.2394 54.836 66.2244 54.4495 66.9475 53.6765C67.6707 52.9035 68.0322 51.8188 68.0322 50.4224V39.0891H74.4283Z" fill="white"/>
<path d="M85.4185 42.044C86.0419 41.0715 86.9022 40.286 87.9993 39.6875C89.0965 39.0891 90.3807 38.7899 91.8519 38.7899C93.5725 38.7899 95.131 39.2262 96.5274 40.099C97.9238 40.9717 99.0209 42.2185 99.8189 43.8393C100.642 45.4602 101.053 47.3428 101.053 49.4873C101.053 51.6318 100.642 53.5269 99.8189 55.1726C99.0209 56.7935 97.9238 58.0527 96.5274 58.9504C95.131 59.8232 93.5725 60.2595 91.8519 60.2595C90.4056 60.2595 89.1215 59.9603 87.9993 59.3619C86.9022 58.7634 86.0419 57.9904 85.4185 57.0428V69.9097H79.0225V39.0891H85.4185V42.044ZM94.545 49.4873C94.545 47.8914 94.0961 46.6446 93.1984 45.7469C92.3257 44.8243 91.241 44.363 89.9443 44.363C88.6726 44.363 87.5879 44.8243 86.6902 45.7469C85.8175 46.6696 85.3811 47.9288 85.3811 49.5247C85.3811 51.1206 85.8175 52.3798 86.6902 53.3025C87.5879 54.2251 88.6726 54.6864 89.9443 54.6864C91.2161 54.6864 92.3008 54.2251 93.1984 53.3025C94.0961 52.3549 94.545 51.0832 94.545 49.4873Z" fill="white"/>
<path d="M112.899 60.2595C111.079 60.2595 109.458 59.9478 108.037 59.3244C106.616 58.7011 105.493 57.8532 104.671 56.781C103.848 55.6838 103.386 54.462 103.287 53.1154H109.608C109.683 53.8386 110.019 54.4246 110.618 54.8734C111.216 55.3223 111.952 55.5467 112.825 55.5467C113.622 55.5467 114.233 55.3971 114.657 55.0978C115.106 54.7737 115.331 54.3622 115.331 53.8635C115.331 53.2651 115.019 52.8287 114.395 52.5544C113.772 52.2552 112.762 51.931 111.366 51.5819C109.87 51.2328 108.623 50.8712 107.625 50.4972C106.628 50.0982 105.768 49.4873 105.045 48.6644C104.321 47.8166 103.96 46.682 103.96 45.2607C103.96 44.0638 104.284 42.9791 104.932 42.0066C105.606 41.0091 106.578 40.2237 107.85 39.6501C109.147 39.0766 110.68 38.7899 112.451 38.7899C115.069 38.7899 117.126 39.4382 118.622 40.7348C120.143 42.0315 121.016 43.7521 121.24 45.8965H115.331C115.231 45.1734 114.907 44.5999 114.358 44.176C113.834 43.7521 113.136 43.5401 112.263 43.5401C111.515 43.5401 110.942 43.6897 110.543 43.989C110.144 44.2633 109.944 44.6498 109.944 45.1485C109.944 45.7469 110.256 46.1958 110.88 46.495C111.528 46.7942 112.525 47.0935 113.872 47.3927C115.418 47.7917 116.677 48.1906 117.65 48.5896C118.622 48.9636 119.47 49.587 120.193 50.4598C120.941 51.3076 121.328 52.4546 121.353 53.9009C121.353 55.1228 121.003 56.2199 120.305 57.1924C119.632 58.14 118.647 58.8881 117.35 59.4367C116.079 59.9852 114.595 60.2595 112.899 60.2595Z" fill="white"/>
<path d="M138.095 38.8647C140.489 38.8647 142.409 39.6626 143.855 41.2585C145.302 42.8294 146.025 44.9989 146.025 47.7667V59.9603H139.666V48.627C139.666 47.2306 139.304 46.1459 138.581 45.3729C137.858 44.5999 136.886 44.2134 135.664 44.2134C134.442 44.2134 133.469 44.5999 132.746 45.3729C132.023 46.1459 131.662 47.2306 131.662 48.627V59.9603H125.266V32.2816H131.662V41.8944C132.31 40.9717 133.195 40.2361 134.317 39.6875C135.439 39.139 136.699 38.8647 138.095 38.8647Z" fill="white"/>
<path d="M153.686 36.9197C152.564 36.9197 151.641 36.5955 150.918 35.9472C150.22 35.2739 149.871 34.451 149.871 33.4785C149.871 32.4811 150.22 31.6582 150.918 31.0099C151.641 30.3366 152.564 30 153.686 30C154.783 30 155.681 30.3366 156.379 31.0099C157.102 31.6582 157.464 32.4811 157.464 33.4785C157.464 34.451 157.102 35.2739 156.379 35.9472C155.681 36.5955 154.783 36.9197 153.686 36.9197ZM156.865 39.0891V59.9603H150.469V39.0891H156.865Z" fill="white"/>
<path d="M171.973 44.4004H168.532V59.9603H162.136V44.4004H159.817V39.0891H162.136V38.4906C162.136 35.9222 162.872 33.9773 164.343 32.6557C165.814 31.3091 167.971 30.6359 170.814 30.6359C171.288 30.6359 171.637 30.6483 171.861 30.6733V36.0968C170.639 36.022 169.779 36.1965 169.28 36.6204C168.782 37.0444 168.532 37.8049 168.532 38.9021V39.0891H171.973V44.4004Z" fill="white"/>
<path d="M186.611 54.5368V59.9603H183.357C181.038 59.9603 179.23 59.3993 177.934 58.2771C176.637 57.1301 175.989 55.2724 175.989 52.704V44.4004H173.445V39.0891H175.989V34.0022H182.385V39.0891H186.574V44.4004H182.385V52.7788C182.385 53.4022 182.534 53.8511 182.834 54.1253C183.133 54.3996 183.632 54.5368 184.33 54.5368H186.611Z" fill="white"/>
<path d="M193.166 60.2595C192.044 60.2595 191.122 59.9354 190.398 59.287C189.7 58.6138 189.351 57.7909 189.351 56.8184C189.351 55.821 189.7 54.9856 190.398 54.3124C191.122 53.6391 192.044 53.3025 193.166 53.3025C194.264 53.3025 195.161 53.6391 195.859 54.3124C196.583 54.9856 196.944 55.821 196.944 56.8184C196.944 57.7909 196.583 58.6138 195.859 59.287C195.161 59.9354 194.264 60.2595 193.166 60.2595Z" fill="white"/>
<path d="M208.436 60.2595C206.092 60.2595 204.172 59.7234 202.675 58.6512C201.204 57.554 200.381 56.0703 200.207 54.2002H202.9C203.024 55.3472 203.561 56.2823 204.508 57.0054C205.481 57.7036 206.777 58.0527 208.398 58.0527C209.819 58.0527 210.929 57.7161 211.727 57.0428C212.55 56.3696 212.961 55.5342 212.961 54.5368C212.961 53.8386 212.737 53.2651 212.288 52.8162C211.839 52.3674 211.266 52.0183 210.568 51.7689C209.894 51.4946 208.972 51.2079 207.8 50.9086C206.279 50.5097 205.044 50.1107 204.097 49.7117C203.149 49.3127 202.339 48.7268 201.665 47.9537C201.017 47.1558 200.693 46.096 200.693 44.7744C200.693 43.777 200.992 42.8544 201.591 42.0066C202.189 41.1588 203.037 40.4855 204.134 39.9868C205.231 39.4881 206.478 39.2387 207.874 39.2387C210.069 39.2387 211.839 39.7998 213.186 40.9219C214.532 42.019 215.255 43.5401 215.355 45.4851H212.737C212.662 44.2882 212.188 43.3282 211.316 42.605C210.468 41.857 209.296 41.4829 207.8 41.4829C206.478 41.4829 205.406 41.7946 204.583 42.418C203.76 43.0414 203.349 43.8144 203.349 44.737C203.349 45.535 203.586 46.1958 204.059 46.7194C204.558 47.2181 205.169 47.6171 205.892 47.9163C206.615 48.1906 207.588 48.5023 208.81 48.8514C210.281 49.2504 211.453 49.6369 212.325 50.0109C213.198 50.385 213.946 50.9336 214.57 51.6567C215.193 52.3798 215.517 53.3399 215.542 54.5368C215.542 55.634 215.243 56.6189 214.645 57.4917C214.046 58.3395 213.211 59.0128 212.138 59.5115C211.066 60.0102 209.832 60.2595 208.436 60.2595Z" fill="white"/>
<path d="M238.163 39.5379V59.9603H235.544V56.3696C234.946 57.6413 234.023 58.6138 232.777 59.287C231.53 59.9603 230.133 60.2969 228.587 60.2969C226.144 60.2969 224.149 59.5489 222.603 58.0527C221.057 56.5316 220.284 54.3373 220.284 51.4697V39.5379H222.865V51.1705C222.865 53.3897 223.413 55.0854 224.51 56.2574C225.632 57.4293 227.153 58.0153 229.074 58.0153C231.043 58.0153 232.614 57.3919 233.786 56.1451C234.958 54.8984 235.544 53.0656 235.544 50.6468V39.5379H238.163Z" fill="white"/>
<path d="M246.721 44.0264C247.369 42.6549 248.392 41.5203 249.788 40.6226C251.209 39.7 252.893 39.2387 254.838 39.2387C256.683 39.2387 258.341 39.6751 259.812 40.5478C261.308 41.3956 262.468 42.6175 263.291 44.2134C264.139 45.7843 264.563 47.6171 264.563 49.7117C264.563 51.8063 264.139 53.6516 263.291 55.2475C262.468 56.8433 261.308 58.0777 259.812 58.9504C258.341 59.8232 256.683 60.2595 254.838 60.2595C252.918 60.2595 251.247 59.8107 249.826 58.913C248.404 57.9904 247.369 56.8433 246.721 55.4719V69.6105H244.14V39.5379H246.721V44.0264ZM261.907 49.7117C261.907 48.0161 261.57 46.5573 260.897 45.3355C260.249 44.0887 259.351 43.1411 258.204 42.4928C257.057 41.8445 255.76 41.5203 254.314 41.5203C252.918 41.5203 251.633 41.857 250.461 42.5302C249.314 43.2035 248.404 44.1635 247.731 45.4103C247.058 46.6571 246.721 48.1034 246.721 49.7491C246.721 51.3949 247.058 52.8412 247.731 54.0879C248.404 55.3347 249.314 56.2948 250.461 56.968C251.633 57.6413 252.918 57.9779 254.314 57.9779C255.76 57.9779 257.057 57.6538 258.204 57.0054C259.351 56.3322 260.249 55.3721 260.897 54.1253C261.57 52.8536 261.907 51.3824 261.907 49.7117Z" fill="white"/>
<path d="M271.961 44.0264C272.61 42.6549 273.632 41.5203 275.028 40.6226C276.45 39.7 278.133 39.2387 280.078 39.2387C281.923 39.2387 283.581 39.6751 285.052 40.5478C286.549 41.3956 287.708 42.6175 288.531 44.2134C289.379 45.7843 289.803 47.6171 289.803 49.7117C289.803 51.8063 289.379 53.6516 288.531 55.2475C287.708 56.8433 286.549 58.0777 285.052 58.9504C283.581 59.8232 281.923 60.2595 280.078 60.2595C278.158 60.2595 276.487 59.8107 275.066 58.913C273.644 57.9904 272.61 56.8433 271.961 55.4719V69.6105H269.38V39.5379H271.961V44.0264ZM287.147 49.7117C287.147 48.0161 286.81 46.5573 286.137 45.3355C285.489 44.0887 284.591 43.1411 283.444 42.4928C282.297 41.8445 281 41.5203 279.554 41.5203C278.158 41.5203 276.874 41.857 275.702 42.5302C274.555 43.2035 273.644 44.1635 272.971 45.4103C272.298 46.6571 271.961 48.1034 271.961 49.7491C271.961 51.3949 272.298 52.8412 272.971 54.0879C273.644 55.3347 274.555 56.2948 275.702 56.968C276.874 57.6413 278.158 57.9779 279.554 57.9779C281 57.9779 282.297 57.6538 283.444 57.0054C284.591 56.3322 285.489 55.3721 286.137 54.1253C286.81 52.8536 287.147 51.3824 287.147 49.7117Z" fill="white"/>
<path d="M297.239 32.2816V59.9603H294.62V32.2816H297.239Z" fill="white"/>
<path d="M319.999 39.5379L307.881 69.573H305.15L309.115 59.8481L300.737 39.5379H303.617L310.574 56.968L317.306 39.5379H319.999Z" fill="white"/>
<path d="M35.742 56.075C30.8501 64.0799 28.4042 68.0824 25.1833 69.305C22.8818 70.1786 20.3399 70.1786 18.0384 69.305C14.8175 68.0824 12.3716 64.0799 7.47966 56.075V56.075C2.20919 47.4506 -0.426048 43.1384 0.0561952 39.5896C0.400092 37.0588 1.69305 34.7534 3.67315 33.1403C6.44984 30.8783 11.5035 30.8783 21.6108 30.8783V30.8783C31.7182 30.8783 36.7719 30.8783 39.5485 33.1403C41.5286 34.7534 42.8216 37.0588 43.1655 39.5896C43.6477 43.1384 41.0125 47.4506 35.742 56.075V56.075Z" fill="#C1FA6B"/>
<path d="M21.1619 38.9371C21.3741 38.5112 21.9573 38.5609 22.1662 38.9884V38.9884C22.6402 39.958 23.0803 40.9623 23.5204 41.932C24.4344 43.9059 25.8901 45.3258 27.7859 46.2608C28.7 46.711 29.614 47.1266 30.528 47.5768V47.5768C30.9455 47.7903 30.9922 48.3599 30.582 48.587C30.5636 48.5972 30.5456 48.6067 30.528 48.6157C29.614 49.1005 28.6661 49.5161 27.7182 49.9663C25.7886 50.9013 24.4006 52.3558 23.4865 54.3297C23.0803 55.1955 22.7079 56.0613 22.3016 56.8924V56.8924C22.0912 57.3768 21.3171 57.3712 21.0485 56.9165C21.037 56.897 21.0259 56.8775 21.0152 56.8578C20.5751 55.9574 20.1689 55.057 19.7288 54.1566C18.8486 52.3211 17.5283 50.9359 15.7002 50.0355C14.7185 49.5507 13.7028 49.1005 12.755 48.6157C12.7333 48.6046 12.712 48.5919 12.691 48.5779C12.3569 48.354 12.363 47.7599 12.7211 47.5768V47.5768C13.669 47.0919 14.6507 46.6417 15.5986 46.1915C17.4267 45.2911 18.8147 43.9059 19.6949 42.0359C20.1689 41.0316 20.609 40.0273 21.1168 39.023C21.1332 38.9936 21.1479 38.9651 21.1619 38.9371Z" fill="#0E0E0E"/>
</svg>
