<svg width="281" height="100" viewBox="0 0 281 100" fill="none" xmlns="http://www.w3.org/2000/svg">
<path d="M0 40.9521C1.04533 40.6577 2.38651 40.3829 4.02355 40.1081C5.66058 39.853 7.39623 39.7156 9.19105 39.7156C11.0253 39.7156 12.544 39.9511 13.7669 40.4222C14.9896 40.9129 15.9562 41.5802 16.6662 42.4635C17.3762 43.3271 17.889 44.3674 18.1849 45.5648C18.4807 46.762 18.6385 48.0968 18.6385 49.5689V61.699H12.5243V50.2952C12.5243 48.3323 12.2679 46.9387 11.7354 46.1339C11.2225 45.3096 10.2561 44.9171 8.81631 44.9171C8.38239 44.9171 7.90904 44.9367 7.41595 44.9759C6.94259 45.0152 6.50869 45.0544 6.11422 45.1133V61.699H0V40.9521Z" fill="#006AD9"/>
<path d="M31.9312 39.6372C33.7459 39.6372 35.2448 39.8335 36.4479 40.2457C37.6511 40.6579 38.6174 41.2467 39.3472 41.9926C40.077 42.7581 40.5898 43.6806 40.8857 44.7797C41.1815 45.8789 41.3392 47.0763 41.3392 48.4109V61.071C40.4714 61.2672 39.2486 61.4832 37.6904 61.7383C36.1324 61.9935 34.2389 62.1309 32.0299 62.1309C30.6296 62.1309 29.3672 62.0131 28.2233 61.7579C27.0793 61.5224 26.1129 61.1102 25.2845 60.5607C24.4562 60.011 23.8249 59.2653 23.3911 58.382C22.9572 57.479 22.7402 56.38 22.7402 55.0648C22.7402 53.8086 22.9966 52.7487 23.4896 51.8851C23.9828 51.0214 24.6732 50.3148 25.5213 49.8045C26.3693 49.2941 27.3357 48.9212 28.4403 48.6857C29.525 48.4502 30.669 48.3325 31.8524 48.3325C32.6413 48.3325 33.3514 48.3717 33.9627 48.4305C34.5742 48.5091 35.0673 48.5876 35.4618 48.7054V48.1361C35.4618 47.0959 35.1461 46.2714 34.515 45.6433C33.8839 45.0152 32.7991 44.7013 31.2409 44.7013C30.1956 44.7013 29.17 44.7797 28.1641 44.9171C27.1582 45.0546 26.2707 45.2704 25.5409 45.5452L24.752 40.6382C25.107 40.5205 25.5606 40.4223 26.0931 40.2849C26.6257 40.1672 27.2174 40.0494 27.8288 39.9513C28.4403 39.8531 29.1305 39.7746 29.8208 39.6961C30.5111 39.6765 31.2212 39.6372 31.9312 39.6372ZM32.4243 57.4594C33.0358 57.4594 33.6077 57.4398 34.1402 57.4202C34.6925 57.4006 35.1264 57.3612 35.4618 57.3024V52.6898C35.2251 52.631 34.8503 52.572 34.3572 52.5328C33.8642 52.474 33.4104 52.4542 32.9963 52.4542C32.4243 52.4542 31.872 52.4936 31.379 52.5524C30.8859 52.6114 30.4323 52.7488 30.0378 52.945C29.663 53.1413 29.3475 53.3965 29.1305 53.7302C28.9136 54.0638 28.7952 54.4563 28.7952 54.947C28.7952 55.9088 29.1109 56.5566 29.7617 56.9295C30.4126 57.2632 31.3001 57.4594 32.4243 57.4594Z" fill="#006AD9"/>
<path d="M65.9143 61.0123C65.362 61.1693 64.7308 61.3263 64.0209 61.4833C63.3108 61.6404 62.5613 61.7581 61.7921 61.8759C61.0031 61.9936 60.2142 62.0722 59.4056 62.1508C58.5969 62.2096 57.8277 62.2488 57.0782 62.2488C55.3032 62.2488 53.7056 61.9936 52.3249 61.4637C50.9245 60.9534 49.7609 60.2075 48.7945 59.2458C47.828 58.284 47.0983 57.1064 46.6051 55.7324C46.0923 54.3584 45.8557 52.8077 45.8557 51.1002C45.8557 49.3533 46.0727 47.7829 46.5066 46.3894C46.9404 44.9958 47.5716 43.7985 48.4 42.8171C49.2284 41.8357 50.2342 41.0898 51.4176 40.5795C52.601 40.0692 53.9619 39.7944 55.5003 39.7944C56.3484 39.7944 57.0979 39.8729 57.7685 40.0299C58.4391 40.1869 59.1097 40.4225 59.8 40.7169V30.9814L65.9143 30V61.0123ZM52.0882 50.786C52.0882 52.6703 52.5024 54.1817 53.3703 55.3201C54.2184 56.4585 55.4807 57.0278 57.1374 57.0278C57.6897 57.0278 58.1828 57.0082 58.6561 56.9689C59.1294 56.9296 59.5042 56.8904 59.8 56.8315V45.7613C59.4252 45.5257 58.9124 45.3099 58.3011 45.1528C57.6897 44.9958 57.0585 44.9174 56.4274 44.9174C53.5478 44.9174 52.0882 46.8801 52.0882 50.786Z" fill="#006AD9"/>
<path d="M79.4261 39.6372C81.2406 39.6372 82.7397 39.8335 83.9428 40.2457C85.1458 40.6579 86.1123 41.2467 86.8421 41.9926C87.5718 42.7581 88.0846 43.6806 88.3805 44.7797C88.6763 45.8789 88.8341 47.0763 88.8341 48.4109V61.071C87.9663 61.2672 86.7434 61.4832 85.1853 61.7383C83.6271 61.9935 81.7337 62.1309 79.5247 62.1309C78.1244 62.1309 76.8621 62.0131 75.7182 61.7579C74.5741 61.5224 73.6077 61.1102 72.7794 60.5607C71.951 60.011 71.3198 59.2653 70.886 58.382C70.452 57.479 70.2351 56.38 70.2351 55.0648C70.2351 53.8086 70.4914 52.7487 70.9845 51.8851C71.4973 51.0214 72.1679 50.3148 73.016 49.8045C73.8641 49.2941 74.8306 48.9212 75.935 48.6857C77.0199 48.4502 78.1638 48.3325 79.3472 48.3325C80.1362 48.3325 80.8462 48.3717 81.4576 48.4305C82.069 48.5091 82.5622 48.5876 82.9565 48.7054V48.1361C82.9565 47.0959 82.641 46.2714 82.0099 45.6433C81.3786 45.0152 80.294 44.7013 78.7358 44.7013C77.6905 44.7013 76.6648 44.7797 75.659 44.9171C74.6531 45.0742 73.7655 45.2704 73.0357 45.5452L72.2469 40.6382C72.6019 40.5205 73.0555 40.4223 73.588 40.2849C74.1206 40.1475 74.7122 40.0494 75.3237 39.9513C75.935 39.8531 76.6254 39.7746 77.3157 39.6961C78.006 39.6765 78.7161 39.6372 79.4261 39.6372ZM79.9192 57.4594C80.5306 57.4594 81.1026 57.4398 81.6351 57.4202C82.1874 57.4006 82.6213 57.3612 82.9565 57.3024V52.6898C82.7199 52.631 82.3452 52.572 81.8521 52.5328C81.359 52.474 80.9053 52.4542 80.4912 52.4542C79.9192 52.4542 79.3669 52.4936 78.8738 52.5524C78.3808 52.6114 77.9272 52.7488 77.5327 52.945C77.1579 53.1413 76.8424 53.3965 76.6254 53.7302C76.4085 54.0638 76.2901 54.4563 76.2901 54.947C76.2901 55.9088 76.6056 56.5566 77.2566 56.9295C77.9074 57.2632 78.795 57.4594 79.9192 57.4594Z" fill="#006AD9"/>
<path d="M114.435 50.9626C114.435 52.631 114.238 54.1423 113.823 55.4967C113.409 56.851 112.817 58.0287 112.009 59.0101C111.22 59.9915 110.234 60.757 109.05 61.3066C107.867 61.8561 106.526 62.131 104.987 62.131C104.139 62.131 103.35 62.0524 102.601 61.8758C101.851 61.6991 101.141 61.4832 100.471 61.1888V69.2559H94.3564V40.9523C94.9087 40.7953 95.5398 40.6382 96.2499 40.4812C96.9599 40.3242 97.7093 40.2064 98.4786 40.0887C99.2675 39.9905 100.057 39.8924 100.865 39.8335C101.674 39.7746 102.443 39.7354 103.192 39.7354C104.968 39.7354 106.565 40.0101 107.946 40.5401C109.346 41.0701 110.51 41.8159 111.476 42.7973C112.443 43.7592 113.172 44.9368 113.666 46.3304C114.178 47.6847 114.435 49.2353 114.435 50.9626ZM108.202 51.1196C108.202 49.2353 107.768 47.7436 106.92 46.6051C106.072 45.4667 104.81 44.9172 103.153 44.9172C102.601 44.9172 102.108 44.9368 101.634 44.976C101.161 45.0154 100.786 45.0546 100.49 45.1134V56.1052C100.865 56.3603 101.378 56.5565 101.989 56.7137C102.601 56.8707 103.232 56.9688 103.863 56.9688C106.743 56.9688 108.202 55.006 108.202 51.1196Z" fill="white"/>
<path d="M126.919 39.6372C128.733 39.6372 130.232 39.8335 131.435 40.2457C132.638 40.6579 133.605 41.2467 134.335 41.9926C135.064 42.7581 135.578 43.6806 135.873 44.7797C136.169 45.8789 136.327 47.0763 136.327 48.4109V61.071C135.459 61.2672 134.237 61.4832 132.678 61.7383C131.12 61.9935 129.226 62.1309 127.017 62.1309C125.617 62.1309 124.355 62.0131 123.211 61.7579C122.067 61.5224 121.1 61.1102 120.272 60.5607C119.443 60.011 118.812 59.2653 118.378 58.382C117.945 57.479 117.728 56.38 117.728 55.0648C117.728 53.8086 117.984 52.7487 118.477 51.8851C118.97 51.0214 119.66 50.3148 120.509 49.8045C121.357 49.2941 122.323 48.9212 123.428 48.6857C124.512 48.4502 125.656 48.3325 126.84 48.3325C127.629 48.3325 128.339 48.3717 128.95 48.4305C129.562 48.5091 130.055 48.5876 130.449 48.7054V48.1361C130.449 47.0959 130.134 46.2714 129.502 45.6433C128.871 45.0152 127.786 44.7013 126.228 44.7013C125.183 44.7013 124.157 44.7797 123.151 44.9171C122.146 45.0742 121.258 45.2704 120.528 45.5452L119.739 40.6382C120.094 40.5205 120.548 40.4223 121.08 40.2849C121.613 40.1672 122.205 40.0494 122.816 39.9513C123.428 39.8531 124.118 39.7746 124.808 39.6961C125.499 39.6765 126.209 39.6372 126.919 39.6372ZM127.412 57.4594C128.023 57.4594 128.595 57.4398 129.128 57.4202C129.68 57.4006 130.114 57.3612 130.449 57.3024V52.6898C130.212 52.631 129.838 52.572 129.345 52.5328C128.851 52.474 128.398 52.4542 127.984 52.4542C127.412 52.4542 126.859 52.4936 126.366 52.5524C125.873 52.6114 125.42 52.7488 125.025 52.945C124.65 53.1413 124.335 53.3965 124.118 53.7302C123.901 54.0638 123.783 54.4563 123.783 54.947C123.783 55.9088 124.098 56.5566 124.749 56.9295C125.4 57.2632 126.287 57.4594 127.412 57.4594Z" fill="white"/>
<path d="M160.528 40.2067C159.286 44.3482 158.003 48.2346 156.662 51.8462C155.321 55.4576 153.861 58.9906 152.264 62.3863C151.692 63.6033 151.12 64.6633 150.529 65.5072C149.956 66.3708 149.325 67.0775 148.635 67.627C147.945 68.1766 147.175 68.5888 146.308 68.844C145.44 69.0992 144.434 69.2365 143.29 69.2365C142.324 69.2365 141.456 69.158 140.647 68.9618C139.839 68.7851 139.168 68.5888 138.655 68.3729L139.72 63.5051C140.351 63.7211 140.903 63.878 141.397 63.9566C141.89 64.0352 142.402 64.0744 142.955 64.0744C144.06 64.0744 144.887 63.78 145.479 63.1911C146.071 62.6022 146.564 61.7975 146.979 60.7572C145.577 58.029 144.177 54.9669 142.797 51.591C141.397 48.1953 140.095 44.3874 138.852 40.1675H145.341C145.618 41.2274 145.933 42.3854 146.308 43.6219C146.682 44.8585 147.077 46.1147 147.491 47.3709C147.905 48.6467 148.32 49.8637 148.754 51.0609C149.188 52.2583 149.581 53.3575 149.976 54.3388C150.332 53.3575 150.705 52.2779 151.081 51.0609C151.475 49.8637 151.849 48.6271 152.205 47.3709C152.58 46.0951 152.934 44.8585 153.27 43.6219C153.605 42.3854 153.921 41.2274 154.197 40.1675H160.528V40.2067Z" fill="white"/>
<path d="M175.636 50.2952C175.636 48.3323 175.379 46.9387 174.867 46.1339C174.353 45.3292 173.485 44.9171 172.263 44.9171C171.888 44.9171 171.474 44.9367 171.08 44.9759C170.666 45.0152 170.271 45.0544 169.896 45.1133V61.699H163.782V40.9521C164.295 40.8147 164.906 40.6773 165.616 40.5203C166.306 40.3633 167.057 40.2259 167.825 40.1081C168.595 39.9904 169.403 39.8922 170.232 39.8137C171.061 39.7548 171.849 39.7156 172.658 39.7156C174.216 39.7156 175.478 39.9119 176.464 40.3044C177.43 40.697 178.24 41.168 178.871 41.7176C179.738 41.0895 180.744 40.5988 181.888 40.2455C183.032 39.8922 184.077 39.7156 185.024 39.7156C186.74 39.7156 188.16 39.9511 189.264 40.4222C190.369 40.8933 191.256 41.5802 191.907 42.4439C192.558 43.3075 193.012 44.3478 193.268 45.5452C193.505 46.7424 193.643 48.0772 193.643 49.5493V61.6794H187.528V50.2754C187.528 48.3127 187.272 46.9191 186.76 46.1143C186.247 45.29 185.379 44.8975 184.156 44.8975C183.821 44.8975 183.368 44.9759 182.775 45.1329C182.183 45.29 181.691 45.5058 181.317 45.7414C181.513 46.3695 181.632 47.0369 181.691 47.7238C181.749 48.4109 181.77 49.1566 181.77 49.9418V61.6598H175.655V50.2952H175.636Z" fill="white"/>
<path d="M198.139 51.1197C198.139 49.2158 198.435 47.5474 199.027 46.1146C199.619 44.6818 200.387 43.504 201.355 42.5423C202.321 41.5805 203.406 40.8739 204.648 40.3832C205.891 39.8925 207.173 39.657 208.495 39.657C211.551 39.657 213.977 40.5991 215.752 42.4638C217.527 44.3284 218.415 47.0764 218.415 50.6878C218.415 51.0412 218.395 51.4337 218.376 51.846C218.356 52.2778 218.317 52.6507 218.297 52.9647H204.431C204.569 54.2209 205.161 55.2023 206.186 55.9482C207.232 56.6744 208.632 57.0474 210.368 57.0474C211.492 57.0474 212.597 56.9492 213.681 56.7333C214.766 56.5371 215.634 56.2819 216.325 55.9678L217.152 60.9141C216.817 61.0711 216.383 61.2477 215.83 61.4048C215.279 61.5618 214.667 61.7188 213.996 61.8366C213.326 61.9544 212.616 62.0526 211.848 62.1506C211.078 62.2292 210.309 62.2684 209.559 62.2684C207.607 62.2684 205.93 61.974 204.491 61.4048C203.05 60.8356 201.867 60.0505 200.921 59.0495C199.973 58.0484 199.283 56.8707 198.829 55.5164C198.356 54.1621 198.139 52.6899 198.139 51.1197ZM212.498 48.7839C212.478 48.2736 212.38 47.7633 212.221 47.2726C212.064 46.7819 211.848 46.3501 211.531 45.9576C211.216 45.5846 210.821 45.2705 210.348 45.0154C209.875 44.7798 209.263 44.6424 208.553 44.6424C207.863 44.6424 207.291 44.7602 206.778 44.9957C206.285 45.2313 205.871 45.5257 205.555 45.9182C205.22 46.2912 204.984 46.7427 204.806 47.253C204.628 47.7633 204.491 48.2736 204.411 48.7839H212.498Z" fill="white"/>
<path d="M223.131 40.9521C224.175 40.6577 225.517 40.3829 227.154 40.1081C228.791 39.853 230.527 39.7156 232.322 39.7156C234.156 39.7156 235.675 39.9511 236.897 40.4222C238.12 40.8933 239.086 41.5802 239.797 42.4439C240.507 43.3075 241.02 44.3478 241.315 45.5452C241.612 46.7424 241.769 48.0772 241.769 49.5493V61.6794H235.655V50.2754C235.655 48.3127 235.399 46.9191 234.865 46.1143C234.353 45.29 233.367 44.8975 231.947 44.8975C231.513 44.8975 231.039 44.9171 230.547 44.9563C230.054 44.9955 229.62 45.0348 229.225 45.0937V61.6794H223.111V40.9521H223.131Z" fill="white"/>
<path d="M247.114 34.8676L253.229 33.8862V40.2065H260.586V45.2705H253.229V52.8273C253.229 54.1032 253.446 55.1239 253.899 55.8893C254.353 56.6548 255.26 57.0278 256.621 57.0278C257.272 57.0278 257.962 56.9688 258.652 56.851C259.342 56.7334 259.993 56.5567 260.566 56.3407L261.434 61.0711C260.684 61.3655 259.876 61.6206 258.969 61.8562C258.06 62.0918 256.957 62.1899 255.635 62.1899C253.958 62.1899 252.578 61.974 251.493 61.5226C250.388 61.0711 249.52 60.443 248.869 59.6383C248.218 58.8335 247.745 57.8521 247.489 56.7136C247.233 55.5752 247.094 54.2994 247.094 52.9058V34.8676H247.114Z" fill="white"/>
<path d="M271.729 57.3225C272.853 57.3225 273.642 57.2048 274.115 56.9888C274.589 56.773 274.806 56.3411 274.806 55.713C274.806 55.2223 274.51 54.7906 273.898 54.4176C273.287 54.0447 272.38 53.6325 271.157 53.1614C270.191 52.8081 269.323 52.4352 268.554 52.0622C267.764 51.6893 267.114 51.2183 266.562 50.6882C266.009 50.1583 265.595 49.5302 265.299 48.7843C265.004 48.0581 264.846 47.1748 264.846 46.1346C264.846 44.1129 265.595 42.523 267.094 41.3453C268.593 40.1676 270.664 39.5984 273.287 39.5984C274.609 39.5984 275.851 39.7162 277.055 39.9517C278.257 40.1872 279.223 40.4424 279.934 40.6976L278.869 45.428C278.159 45.1729 277.389 44.9569 276.541 44.7802C275.713 44.584 274.766 44.4858 273.721 44.4858C271.808 44.4858 270.842 45.0158 270.842 46.0757C270.842 46.3113 270.881 46.5467 270.959 46.7234C271.039 46.9197 271.196 47.0964 271.453 47.273C271.69 47.4497 272.025 47.6459 272.459 47.8423C272.893 48.0581 273.425 48.274 274.076 48.5292C275.417 49.0199 276.521 49.5106 277.409 50.0013C278.277 50.4724 278.967 51.0024 279.481 51.5519C279.993 52.1016 280.347 52.7297 280.545 53.4166C280.742 54.1036 280.861 54.8887 280.861 55.772C280.861 57.8918 280.052 59.5012 278.455 60.5808C276.857 61.6604 274.589 62.2099 271.67 62.2099C269.757 62.2099 268.159 62.053 266.897 61.7192C265.614 61.3855 264.746 61.1304 264.253 60.8949L265.28 55.9486C266.325 56.3607 267.389 56.6748 268.474 56.9104C269.579 57.2048 270.664 57.3225 271.729 57.3225Z" fill="white"/>
</svg>
