<svg width="246" height="100" viewBox="0 0 246 100" fill="none" xmlns="http://www.w3.org/2000/svg">
<path d="M76.0225 65.8852C73.2656 65.8852 70.9351 65.4446 69.0309 64.5636C67.155 63.6825 65.7198 62.4746 64.725 60.9399C63.7303 59.3767 63.2329 57.6146 63.2329 55.6535H69.1587C69.1587 56.4777 69.3861 57.2877 69.8409 58.0835C70.2956 58.8509 71.0203 59.4762 72.0151 59.9593C73.0383 60.4425 74.3741 60.6841 76.0225 60.6841C77.5004 60.6841 78.7367 60.4709 79.7315 60.0446C80.7262 59.6183 81.4652 59.0641 81.9483 58.382C82.4315 57.6714 82.6731 56.8756 82.6731 55.9946C82.6731 54.8861 82.2041 54.0051 81.2662 53.3514C80.3283 52.6693 78.8788 52.243 76.9178 52.0724L74.1893 51.8593C71.2051 51.6035 68.8177 50.6798 67.0272 49.0882C65.265 47.4682 64.384 45.3366 64.384 42.6934C64.384 40.7039 64.8529 38.9986 65.7908 37.5776C66.7287 36.1281 68.0361 35.0197 69.713 34.2523C71.4182 33.4565 73.4077 33.0586 75.6814 33.0586C78.0404 33.0586 80.0725 33.4707 81.7778 34.2949C83.4831 35.1191 84.8047 36.2844 85.7426 37.7907C86.6805 39.2686 87.1494 41.0165 87.1494 43.0345H81.2236C81.2236 42.1818 81.0104 41.4002 80.5841 40.6897C80.1862 39.9507 79.5752 39.3681 78.7509 38.9418C77.9551 38.4871 76.932 38.2597 75.6814 38.2597C74.4877 38.2597 73.493 38.4586 72.6972 38.8565C71.9014 39.2544 71.3046 39.7944 70.9067 40.4765C70.5088 41.1587 70.3098 41.8976 70.3098 42.6934C70.3098 43.6597 70.6651 44.5124 71.3756 45.2513C72.0861 45.9619 73.2088 46.374 74.7435 46.4876L77.472 46.7434C79.6888 46.914 81.6357 47.3829 83.3126 48.1503C84.9894 48.9177 86.2826 49.955 87.1921 51.2624C88.13 52.5698 88.5989 54.1472 88.5989 55.9946C88.5989 57.9556 88.0873 59.6893 87.0642 61.1957C86.041 62.6736 84.5773 63.8246 82.6731 64.6488C80.7973 65.4731 78.5804 65.8852 76.0225 65.8852Z" fill="white"/>
<path d="M91.8316 65.0752V33.9539H97.7575V65.0752H91.8316ZM88.9326 38.3876V33.9539H97.7575V38.3876H88.9326Z" fill="white"/>
<path d="M116.417 65.0752V58.2114H115.436V50.5803C115.436 49.2445 115.11 48.2498 114.456 47.5961C113.802 46.9424 112.793 46.6155 111.429 46.6155C110.718 46.6155 109.866 46.6298 108.871 46.6582C107.876 46.6866 106.867 46.7292 105.844 46.7861C104.849 46.8145 103.954 46.8571 103.158 46.914V41.8834C103.812 41.8266 104.551 41.7697 105.375 41.7129C106.199 41.656 107.038 41.6276 107.891 41.6276C108.772 41.5992 109.596 41.585 110.363 41.585C112.751 41.585 114.726 41.8976 116.289 42.5229C117.881 43.1481 119.074 44.1287 119.87 45.4645C120.694 46.8003 121.106 48.5482 121.106 50.7082V65.0752H116.417ZM108.956 65.672C107.279 65.672 105.802 65.3736 104.523 64.7767C103.272 64.1799 102.292 63.3273 101.581 62.2188C100.899 61.1104 100.558 59.7746 100.558 58.2114C100.558 56.5061 100.97 55.1135 101.794 54.0335C102.647 52.9535 103.826 52.1435 105.333 51.6035C106.867 51.0635 108.658 50.7935 110.704 50.7935H116.076V54.3319H110.619C109.255 54.3319 108.203 54.673 107.464 55.3551C106.754 56.0088 106.398 56.8614 106.398 57.913C106.398 58.9646 106.754 59.8172 107.464 60.4709C108.203 61.1246 109.255 61.4515 110.619 61.4515C111.443 61.4515 112.196 61.3093 112.878 61.0251C113.589 60.7125 114.172 60.2009 114.626 59.4904C115.11 58.7514 115.38 57.7567 115.436 56.5062L116.886 58.1688C116.744 59.7888 116.346 61.153 115.692 62.2615C115.067 63.3699 114.186 64.2225 113.049 64.8194C111.941 65.3878 110.576 65.672 108.956 65.672Z" fill="white"/>
<path d="M138.922 65.8425C137.018 65.8425 135.341 65.4446 133.891 64.6488C132.442 63.8246 131.305 62.6309 130.481 61.0678C129.657 59.5046 129.202 57.6146 129.117 55.3977H130.012V65.0752H125.322V33.9539H131.248V49.5145L129.671 51.9445C129.784 49.5571 130.253 47.5677 131.078 45.9761C131.93 44.3845 133.067 43.1908 134.488 42.395C135.909 41.5992 137.515 41.2013 139.306 41.2013C140.897 41.2013 142.347 41.4997 143.654 42.0966C144.961 42.6934 146.084 43.5318 147.022 44.6118C147.96 45.6634 148.67 46.8998 149.154 48.3208C149.665 49.7419 149.921 51.2908 149.921 52.9677V53.863C149.921 55.5398 149.665 57.103 149.154 58.5525C148.642 60.002 147.903 61.2809 146.937 62.3894C145.97 63.4694 144.805 64.322 143.441 64.9473C142.105 65.5441 140.599 65.8425 138.922 65.8425ZM137.6 60.8546C138.879 60.8546 139.988 60.542 140.926 59.9167C141.892 59.263 142.645 58.382 143.185 57.2735C143.725 56.1651 143.995 54.8861 143.995 53.4367C143.995 51.9587 143.725 50.6798 143.185 49.5998C142.645 48.5198 141.892 47.6813 140.926 47.0845C139.988 46.4876 138.879 46.1892 137.6 46.1892C136.435 46.1892 135.355 46.445 134.36 46.9566C133.394 47.4682 132.598 48.2213 131.973 49.2161C131.376 50.2108 131.078 51.4045 131.078 52.7972V54.5024C131.078 55.8382 131.39 56.9751 132.016 57.913C132.641 58.8509 133.451 59.5756 134.446 60.0872C135.44 60.5988 136.492 60.8546 137.6 60.8546Z" fill="white"/>
<path d="M158.67 55.5256V50.2819H164.724C165.946 50.2819 166.969 50.0403 167.793 49.5571C168.646 49.074 169.285 48.4061 169.711 47.5534C170.166 46.7008 170.394 45.7203 170.394 44.6118C170.394 43.5034 170.166 42.5229 169.711 41.6702C169.285 40.8176 168.646 40.1639 167.793 39.7092C166.969 39.226 165.946 38.9844 164.724 38.9844H158.67V33.7407H164.212C166.827 33.7407 169.044 34.167 170.863 35.0197C172.71 35.8723 174.117 37.0944 175.083 38.686C176.049 40.2492 176.533 42.1108 176.533 44.2708V44.9529C176.533 47.1129 176.049 48.9887 175.083 50.5803C174.117 52.1435 172.71 53.3656 170.863 54.2467C169.044 55.0993 166.827 55.5256 164.212 55.5256H158.67ZM153.469 65.0752V33.7407H159.522V65.0752H153.469Z" fill="white"/>
<path d="M181.498 65.0752V41.926H187.424V65.0752H181.498ZM178.258 46.3598V41.926H187.424V46.3598H178.258ZM183.673 39.155C182.507 39.155 181.641 38.8565 181.072 38.2597C180.532 37.6344 180.262 36.867 180.262 35.9576C180.262 34.9912 180.532 34.2096 181.072 33.6128C181.641 33.016 182.507 32.7175 183.673 32.7175C184.838 32.7175 185.691 33.016 186.231 33.6128C186.771 34.2096 187.041 34.9912 187.041 35.9576C187.041 36.867 186.771 37.6344 186.231 38.2597C185.691 38.8565 184.838 39.155 183.673 39.155Z" fill="white"/>
<path d="M189.479 65.0752L197.025 52.7119L196.897 53.6924L189.777 41.926H196.215L200.862 50.0687H201.501L205.892 41.926H211.946L205.21 53.6498L205.338 52.7972L213.31 65.0752H206.873L201.373 56.3356H200.734L195.533 65.0752H189.479Z" fill="white"/>
<path d="M224.83 65.8852C222.841 65.8852 221.093 65.5441 219.586 64.862C218.108 64.1799 216.872 63.2704 215.877 62.1336C214.911 60.9683 214.172 59.6751 213.661 58.2541C213.177 56.833 212.936 55.3835 212.936 53.9056V53.0956C212.936 51.5608 213.177 50.0829 213.661 48.6619C214.172 47.2124 214.911 45.9334 215.877 44.825C216.872 43.6881 218.094 42.7929 219.544 42.1392C220.993 41.4571 222.67 41.116 224.574 41.116C227.075 41.116 229.164 41.6702 230.841 42.7787C232.546 43.8587 233.825 45.294 234.678 47.0845C235.531 48.8466 235.957 50.7508 235.957 52.7972V54.9288H215.451V51.3051H232.248L230.415 53.0956C230.415 51.6177 230.202 50.3529 229.775 49.3014C229.349 48.2498 228.695 47.4398 227.814 46.8713C226.962 46.3029 225.882 46.0187 224.574 46.0187C223.267 46.0187 222.158 46.3171 221.249 46.914C220.34 47.5108 219.643 48.3777 219.16 49.5145C218.705 50.6229 218.478 51.9587 218.478 53.5219C218.478 54.9714 218.705 56.2646 219.16 57.4014C219.615 58.5098 220.311 59.3909 221.249 60.0446C222.187 60.6699 223.381 60.9825 224.83 60.9825C226.28 60.9825 227.459 60.6983 228.369 60.1299C229.278 59.533 229.861 58.8083 230.116 57.9556H235.573C235.232 59.5472 234.579 60.9399 233.612 62.1336C232.646 63.3273 231.41 64.2509 229.903 64.9046C228.425 65.5583 226.734 65.8852 224.83 65.8852Z" fill="white"/>
<path d="M239.074 65.0752V33.9539H245V65.0752H239.074ZM236.175 38.3876V33.9539H245V38.3876H236.175Z" fill="white"/>
<path d="M49.5414 58.0282C49.5414 62.408 47.8015 66.6085 44.7045 69.7055C41.6075 72.8024 37.4071 74.5423 33.0273 74.5423V49.3366C32.9138 47.2236 31.9943 45.2346 30.4582 43.7794C28.922 42.3241 26.8863 41.5133 24.7703 41.5142H33.0273C37.4071 41.5142 41.6075 43.254 44.7045 46.351C47.8015 49.448 49.5414 53.6484 49.5414 58.0282Z" fill="#FFD43A"/>
<path d="M33.0282 58.028C33.0282 62.4078 31.2883 66.6083 28.1913 69.7052C25.0943 72.8022 20.8939 74.5421 16.5141 74.5421H0C0 70.1623 1.73987 65.9619 4.83686 62.8649C7.93385 59.7679 12.1343 58.028 16.5141 58.028H24.7711C26.8871 58.0288 28.9229 57.2181 30.459 55.7628C31.9952 54.3075 32.9147 52.3185 33.0282 50.2056V58.028Z" fill="#2AA88F"/>
<path d="M24.7798 58.0282H16.5141C12.1343 58.0282 7.93385 56.2883 4.83686 53.1913C1.73987 50.0943 0 45.8939 0 41.5141C0 37.1343 1.73987 32.9339 4.83686 29.8369C7.93385 26.7399 12.1343 25 16.5141 25V49.7711C16.5164 51.9618 17.3883 54.062 18.9381 55.6103C20.488 57.1585 22.5891 58.0282 24.7798 58.0282Z" fill="#8C67F7"/>
<path d="M49.5428 25C49.5428 29.3798 47.8029 33.5802 44.7059 36.6772C41.609 39.7742 37.4085 41.5141 33.0287 41.5141H24.7804C22.5897 41.5141 20.4886 42.3837 18.9387 43.932C17.3888 45.4802 16.517 47.5804 16.5146 49.7711V41.5141C16.5146 37.1343 18.2545 32.9339 21.3515 29.8369C24.4485 26.7399 28.6489 25 33.0287 25H49.5428Z" fill="#FD6333"/>
</svg>
