<svg width="175" height="100" viewBox="0 0 175 100" fill="none" xmlns="http://www.w3.org/2000/svg">
<path d="M23.274 57.1961L22.3432 60.7498H8.13175C14.3578 56.9632 19.044 53.5993 21.9801 49.9897C24.9163 46.3802 26.2793 42.3336 26.2793 38.5278C26.2793 34.7221 25.1025 31.7027 22.7421 29.476C20.3817 27.2493 17.1703 26.1264 13.0998 26.1264C11.7294 26.1171 10.361 26.2537 9.01074 26.5348V29.7806C9.12776 29.7583 9.26207 29.744 9.40968 29.7328C9.55728 29.7216 9.77138 29.7168 10.0427 29.7168C12.177 29.7168 14.2727 31.1524 15.3033 32.6932C16.4336 34.3743 16.7581 36.3937 16.7581 38.9521C16.7581 42.3399 15.4522 45.7996 12.9363 49.4171C10.4203 53.0347 6.21553 57.4338 0.224854 62.5347V68.4905H27.3525V57.1961H23.274Z" fill="#EC7966"/>
<path d="M9.0122 26.5415V40.313C8.26177 40.7183 7.48419 41.047 6.68773 41.2956C6.0451 41.4984 5.38411 41.6055 4.71965 41.6146C3.2888 41.6146 2.14652 41.1504 1.28881 40.2125C0.431094 39.2747 0.000244141 38.0273 0.000244141 36.4754C0.000244141 33.4299 1.20813 30.9454 3.62391 29.0218C5.12834 27.8223 6.92443 26.9956 9.0122 26.5415Z" fill="#304EE4"/>
<path d="M36.25 22.4119H39.2034V41.0897C41.5252 39.6574 43.4437 38.6381 44.9587 38.032C46.4738 37.4259 47.8116 37.1234 48.972 37.1245C51.5642 37.1245 53.4614 38.0177 54.6635 39.8041C55.8656 41.5906 56.4671 44.4313 56.468 48.3264V64.0997L57.0505 64.8876L59.8271 65.1907V68.4908H45.3111V65.1907L47.3816 64.8876L47.9361 64.0997V50.8609C47.9361 48.1578 47.5372 46.297 46.7393 45.2783C45.9414 44.2596 44.5323 43.7502 42.5119 43.7502C41.6024 43.7502 40.9162 43.7651 40.4534 43.7949C39.9907 43.8247 39.5744 43.8704 39.2048 43.9321V64.0997L39.9361 64.8876L42.1077 65.1907V68.4908H27.3644V65.1907L30.0146 64.8876L30.621 64.0997V28.9802H26.9614V26.0119L36.25 22.4119Z" fill="white"/>
<path d="M173.537 54.2679C172.556 52.9812 170.718 51.6749 168.023 50.3489C167.468 50.0682 166.688 49.7072 165.683 49.2659C162.602 47.8984 161.061 46.3411 161.06 44.594C161.06 43.6104 161.414 42.8214 162.124 42.227C162.833 41.6326 163.788 41.3364 164.988 41.3385C165.59 41.3431 166.189 41.4342 166.773 41.6097C167.447 41.8148 168.103 42.0974 168.731 42.4535L169.411 43.2956L170.089 48.1796H173.782V38.7466C171.771 38.1841 169.958 37.7673 168.343 37.4961C166.89 37.2393 165.424 37.1028 163.955 37.0878C160.503 37.0878 157.725 37.9821 155.622 39.7706C153.52 41.5592 152.469 43.8906 152.469 46.7649C152.457 47.6915 152.602 48.6114 152.895 49.4686C153.189 50.3259 153.625 51.1024 154.177 51.7509C155.317 53.1269 157.755 54.7996 161.491 56.7689C161.757 56.9093 162.156 57.1214 162.698 57.4069C165.109 58.633 166.314 60.0297 166.315 61.5971C166.329 62.0977 166.241 62.5949 166.059 63.046C165.878 63.4971 165.608 63.8888 165.273 64.1874C164.576 64.8339 163.642 65.1567 162.471 65.1556C161.561 65.1552 160.654 65.0278 159.769 64.776C158.836 64.5109 157.931 64.1225 157.069 63.618L156.491 62.8332L155.851 57.1932H152.158V63.4521H152.106C152.095 63.4536 152.083 63.4536 152.072 63.4521C151.636 63.5103 151.198 63.5406 150.759 63.543C148.809 63.543 147.492 63.1746 146.809 62.4377C146.125 61.7008 145.784 60.2732 145.786 58.155V42.4774H152.106L153.524 37.9044H145.786V29.749H141.192L137.93 37.0862L136.051 38.1628C135.669 37.8564 135.25 37.6228 134.809 37.4706C134.218 37.2336 133.601 37.104 132.979 37.0862C132.402 37.0877 131.831 37.2214 131.297 37.4802C129.967 38.1596 129.036 39.1151 127.878 40.2555C126.675 41.444 125.545 42.7339 124.496 44.1155L124.976 37.8949H121.975L112.459 40.6272V43.6832H116.346V64.0997L115.766 64.8876L113.226 65.1588L111.715 64.9498L111.16 64.2241V49.4477C111.16 46.985 111.042 45.2028 110.807 44.1011C110.591 43.0526 110.196 42.0691 109.648 41.2125C108.754 39.8185 107.5 38.7689 105.884 38.0639C104.27 37.3557 102.319 37.0878 100.033 37.0878C96.2634 37.0878 93.1012 37.7657 90.5427 39.2873C87.9842 40.809 86.7022 42.5938 86.7022 44.6323C86.7022 45.5399 86.9336 46.1875 87.3964 46.5703C87.8592 46.9531 88.6637 47.1461 89.8086 47.1461H95.9669V40.6957H96.7727C98.6592 40.6957 100.09 41.2104 101.065 42.2397C102.04 43.2691 102.528 44.7833 102.528 46.7824V48.5991C99.7186 49.3041 97.274 49.9799 95.1942 50.6264C93.1145 51.2729 91.4873 51.8578 90.3126 52.381C88.9704 52.9638 87.7989 54.0032 86.9414 55.372C86.0839 56.7408 85.5775 58.3797 85.4842 60.0882V60.0706C83.898 61.1556 82.2085 62.0071 80.4523 62.6067C78.7832 63.1639 77.0584 63.444 75.3259 63.4393C73.0715 63.4393 71.2674 62.552 69.9137 60.7772C68.56 59.0025 67.8574 56.5796 67.806 53.5087H85.6384V52.7175C85.6384 47.7921 84.54 43.9762 82.3432 41.27C80.1491 38.5584 77.056 37.0862 73.0666 37.0862C68.7767 37.0862 65.3273 38.6924 62.7196 41.6496C60.1119 44.6068 58.8047 48.5178 58.8047 53.3826C58.8047 58.2475 60.072 62.1171 62.6052 64.9929C65.1385 67.8688 68.5573 69.2995 72.8645 69.2995C75.0731 69.3133 77.2758 69.0243 79.4297 68.4382C81.4722 67.8672 84.4828 66.4284 86.4562 65.2481C86.7641 65.8608 87.1394 66.4209 87.5719 66.9133C88.9788 68.5084 90.7922 69.3059 93.0121 69.3059C94.3232 69.3059 95.7581 68.9481 97.3166 68.2324C98.8751 67.5168 100.579 66.4412 102.428 65.0057L103.134 68.4892H129.521V65.1875L125.634 64.886L124.977 64.0981V46.2337C125.11 46.2162 125.263 46.2018 125.432 46.189C125.601 46.1763 125.843 46.1747 126.164 46.1747C127.426 46.1747 128.461 46.5081 129.267 47.1748C130.074 47.8415 130.706 48.8916 131.162 50.325H134.847L135.698 43.2382L135.791 42.4774H137.203V59.7692C137.203 61.8108 137.271 63.2974 137.408 64.2353C137.545 65.1731 137.769 65.8957 138.09 66.3997C138.676 67.328 139.5 68.0442 140.561 68.5482C141.722 69.0743 142.956 69.3313 144.197 69.3059C145.639 69.2769 147.074 69.0592 148.476 68.6567C149.72 68.3219 150.95 67.9119 152.16 67.4285C152.366 67.3456 152.559 67.2594 152.765 67.1701C154.556 67.7699 156.275 68.5849 157.926 68.8561C159.644 69.1468 161.376 69.2971 163.112 69.3059C166.532 69.3059 169.369 68.3318 171.622 66.3838C173.876 64.4357 175.002 62.0346 175 59.1806C175 57.1932 174.512 55.5556 173.537 54.2679ZM67.9882 49.3584C67.9882 46.6723 68.3663 44.6482 69.1225 43.2861C69.8787 41.9239 71.0063 41.2428 72.5055 41.2428C73.8352 41.2428 74.8197 41.9191 75.4589 43.2717C76.0981 44.6243 76.4181 46.7335 76.419 49.5992H67.9882V49.3584ZM102.43 61.9799C101.767 62.3318 101.083 62.6256 100.384 62.8587C99.8174 63.0515 99.2317 63.1534 98.6424 63.1618C97.4651 63.1618 96.5143 62.7631 95.79 61.9655C95.0657 61.168 94.704 60.1233 94.7049 58.8313C94.7049 57.0565 95.298 55.6944 96.4841 54.7448C97.6703 53.7952 99.6521 53.1088 102.43 52.6856V61.9799Z" fill="white"/>
<path d="M23.2751 57.1963L20.3083 68.4907H27.3642V57.1963H23.2751Z" fill="#FFDA33"/>
<path d="M8.12999 60.752L0.229736 64.9294V68.4911H20.3082L22.3414 60.752H8.12999Z" fill="#35A953"/>
</svg>
