<svg width="242" height="100" viewBox="0 0 242 100" fill="none" xmlns="http://www.w3.org/2000/svg">
<path fill-rule="evenodd" clip-rule="evenodd" d="M35.7864 49.4755C35.6333 49.6285 35.6333 49.8761 35.7864 50.0291L39.4167 53.6582L32.5952 60.4773C25.478 67.5922 13.9387 67.5922 6.82142 60.4773L0 53.6582L3.64858 50.0108C3.80162 49.8578 3.80162 49.6102 3.64858 49.4572L0.0182973 45.8282L6.83971 39.009C13.957 31.8941 25.4963 31.8941 32.6135 39.009L39.435 45.8282L35.7864 49.4755ZM34.0325 49.4573C34.1855 49.6102 34.1855 49.8578 34.0325 50.0108L28.0789 55.9624C23.4559 60.5838 15.9607 60.5838 11.3378 55.9624L5.40246 50.0291C5.24943 49.8761 5.24943 49.6285 5.40246 49.4755L11.3561 43.5239C15.979 38.9025 23.4742 38.9025 28.0972 43.5239L34.0325 49.4573Z" fill="white"/>
<path d="M19.4994 42.6555C19.5635 42.4374 19.8725 42.4374 19.9366 42.6555C20.9088 45.9644 23.4965 48.5521 26.8053 49.5243C27.0235 49.5884 27.0235 49.8974 26.8053 49.9615C23.4965 50.9337 20.9088 53.5214 19.9366 56.8302C19.8725 57.0484 19.5635 57.0484 19.4994 56.8302C18.5272 53.5214 15.9395 50.9337 12.6306 49.9615C12.4125 49.8974 12.4125 49.5884 12.6306 49.5243C15.9395 48.5521 18.5272 45.9644 19.4994 42.6555Z" fill="url(#paint0_linear_1301_1131)"/>
<path d="M57.9493 48.6268C58.7791 50.9581 59.4891 53.3604 59.9204 54.9692C59.9893 55.2261 60.3696 55.2261 60.4385 54.9692C60.8699 53.3604 61.5799 50.9581 62.4096 48.6268L66.8934 36.7917H73.6712L63.4523 62.5474H56.9066L46.6877 36.7917H53.4656L57.9493 48.6268Z" fill="white"/>
<path d="M75.2959 62.585V36.8999H81.3993V62.585H75.2959Z" fill="white"/>
<path d="M84.3542 54.7265H90.4021C90.4543 56.9683 92.1227 58.376 95.0423 58.376C98.0141 58.376 99.6304 57.1769 99.6304 55.3C99.6304 53.9965 98.9526 53.0581 96.6586 52.5367L92.0184 51.4418C87.3782 50.3991 85.1363 48.2093 85.1363 44.0905C85.1363 39.0332 89.4115 36.0093 95.3552 36.0093C101.142 36.0093 105.053 39.346 105.105 44.3512H99.0569C99.0047 42.1614 97.5449 40.7537 95.0945 40.7537C92.5919 40.7537 91.1321 41.9008 91.1321 43.8298C91.1321 45.2897 92.2791 46.2281 94.4688 46.7495L99.109 47.8444C103.436 48.835 105.626 50.8162 105.626 54.7786C105.626 59.9923 101.194 63.2248 94.8338 63.2248C88.4209 63.2248 84.3542 59.7837 84.3542 54.7265Z" fill="white"/>
<path d="M126.457 36.7917H132.818V62.5474H126.926L126.457 59.1064C124.893 61.5568 121.556 63.2252 118.115 63.2252C112.171 63.2252 108.678 59.2107 108.678 52.9021V36.7917H115.039V50.6602C115.039 55.5611 116.968 57.5423 120.513 57.5423C124.528 57.5423 126.457 55.1961 126.457 50.2952V36.7917Z" fill="white"/>
<path d="M144.682 63.2248C139.208 63.2248 135.871 60.0444 135.871 55.1957C135.871 50.4512 139.312 47.4794 145.412 47.0102L153.128 46.4367V45.8632C153.128 42.37 151.043 40.9623 147.81 40.9623C144.056 40.9623 141.971 42.5264 141.971 45.2375H136.549C136.549 39.6589 141.137 36.0093 148.123 36.0093C155.057 36.0093 159.332 39.7631 159.332 46.9059V62.547H153.754L153.285 58.741C152.19 61.4 148.697 63.2248 144.682 63.2248ZM146.767 58.4282C150.678 58.4282 153.18 56.082 153.18 52.1196V50.764L147.81 51.1811C143.848 51.5461 142.336 52.8495 142.336 54.935C142.336 57.2812 143.9 58.4282 146.767 58.4282Z" fill="white"/>
<path d="M168.389 62.5473H162.285V28.7625H168.389V62.5473Z" fill="white"/>
<path d="M181.715 62.5472H175.612V42.1095H170.659V36.7915H175.612V28.7625L181.715 28.7625V36.7915H186.721V42.1095H181.715V62.5472Z" fill="white"/>
<path d="M197.02 63.2248C191.545 63.2248 188.208 60.0444 188.208 55.1957C188.208 50.4512 191.65 47.4794 197.75 47.0102L205.466 46.4367V45.8632C205.466 42.37 203.38 40.9623 200.148 40.9623C196.394 40.9623 194.309 42.5264 194.309 45.2375H188.886C188.886 39.6589 193.474 36.0093 200.461 36.0093C207.395 36.0093 211.67 39.7631 211.67 46.9059V62.547H206.091L205.622 58.741C204.527 61.4 201.034 63.2248 197.02 63.2248ZM199.105 58.4282C203.015 58.4282 205.518 56.082 205.518 52.1196V50.764L200.148 51.1811C196.185 51.5461 194.673 52.8495 194.673 54.935C194.673 57.2812 196.238 58.4282 199.105 58.4282Z" fill="white"/>
<path d="M214.784 70.7229V36.7913H220.676L221.093 40.7016C222.657 37.7298 226.046 36.0093 229.956 36.0093C237.203 36.0093 242 41.2751 242 49.3563C242 57.3854 237.62 63.2248 229.956 63.2248C226.098 63.2248 222.761 61.7128 221.145 59.106V70.7229H214.784ZM221.197 49.6692C221.197 54.3094 224.065 57.4897 228.444 57.4897C232.928 57.4897 235.587 54.2572 235.587 49.6692C235.587 45.0811 232.928 41.7965 228.444 41.7965C224.065 41.7965 221.197 45.029 221.197 49.6692Z" fill="white"/>
<defs>
<linearGradient id="paint0_linear_1301_1131" x1="12.467" y1="42.4919" x2="28.8984" y2="45.1743" gradientUnits="userSpaceOnUse">
<stop stop-color="#4200FF"/>
<stop offset="0.411458" stop-color="#22E4FF"/>
<stop offset="1" stop-color="#9EFF00"/>
</linearGradient>
</defs>
</svg>
