<svg width="93" height="100" viewBox="0 0 93 100" fill="none" xmlns="http://www.w3.org/2000/svg">
<path d="M0.684082 23.2039H7.85236L25.7767 67.1441L43.6938 23.2039H44.7817L22.8445 76.8989L0.684082 23.2039Z" fill="white"/>
<path d="M88.5621 69.0124C87.26 70.1582 85.8591 71.1847 84.3765 72.0797C82.788 73.0481 81.1369 73.9079 79.4343 74.653C77.717 75.4162 75.9352 76.0219 74.1102 76.4629C72.4055 76.8862 70.6573 77.1057 68.9016 77.117C65.1314 77.117 61.6012 76.4241 58.3112 75.0382C55.0213 73.6522 52.142 71.7526 49.6733 69.3394C47.2095 66.9261 45.2738 64.0767 43.8667 60.7913C42.4594 57.5057 41.7534 53.9633 41.7485 50.1642C41.7485 46.2196 42.4545 42.5827 43.8667 39.2536C45.2787 35.9244 47.2142 33.0387 49.6733 30.5963C52.1372 28.154 55.0165 26.2544 58.3112 24.8976C61.6061 23.5407 65.1361 22.8671 68.9016 22.8768C71.9418 22.8768 75.054 23.296 78.2384 24.1343C81.4227 24.9727 84.1026 26.3053 86.2784 28.1322V31.6431C84.2467 29.0844 81.7853 27.1485 78.894 25.8352C76.0621 24.5329 72.9863 23.8587 69.8742 23.8581C67.2756 23.8599 64.6994 24.3428 62.2737 25.2828C59.8098 26.2374 57.6197 27.6985 55.7033 29.6659C53.7797 31.6431 52.2236 34.1217 51.0349 37.1238C49.8462 40.1259 49.241 43.6948 49.241 47.8599C49.241 52.6041 49.8198 56.7327 50.9773 60.2461C52.1348 63.7594 53.6549 66.6814 55.5376 69.0124C57.4252 71.3529 59.6152 73.1047 62.108 74.2677C64.6006 75.4307 67.1533 76.0171 69.7661 76.0268C73.0993 76.0268 76.358 75.1497 79.5423 73.3954C82.7267 71.6412 85.5507 69.0099 88.0146 65.5014L88.5621 69.0124Z" fill="white"/>
<path d="M78.757 33.0603C80.6784 33.0473 82.5777 33.4748 84.3115 34.3106C86.0285 35.1304 87.5683 36.284 88.8429 37.7052C90.1302 39.1298 91.146 40.8138 91.8904 42.757C92.6325 44.6978 92.9999 46.7839 92.9999 49.001C92.9999 51.218 92.6325 53.2169 91.8904 55.1141C91.1845 56.9521 90.1518 58.6444 88.8429 60.1078C87.5661 61.5245 86.0266 62.6752 84.3115 63.4951C82.5777 64.3309 80.6784 64.7584 78.757 64.7453C76.8915 64.7533 75.0495 64.3254 73.3754 63.4951C71.6972 62.6727 70.1984 61.5212 68.9663 60.1078C67.6856 58.6328 66.6713 56.9427 65.9693 55.1141C65.2345 53.2169 64.8599 51.1744 64.8599 49.001C64.8599 46.8276 65.2345 44.6978 65.9693 42.757C66.7042 40.8163 67.7127 39.1298 68.9663 37.7052C70.196 36.2874 71.6954 35.133 73.3754 34.3106C75.0495 33.4802 76.8915 33.0523 78.757 33.0603ZM68.7357 48.165C68.7357 49.8272 68.9831 51.6105 69.4778 53.5149C69.9414 55.345 70.6593 57.0997 71.6103 58.7268C72.5396 60.3114 73.6779 61.6197 75.0323 62.6665C76.3867 63.7131 77.8853 64.2365 79.5567 64.2365C81.228 64.2365 82.6112 63.7567 83.8288 62.7972C85.0653 61.8105 86.1003 60.5911 86.8762 59.2064C87.7094 57.7376 88.3236 56.1529 88.6988 54.5035C89.0976 52.7977 89.2968 51.1986 89.2968 49.7061C89.2968 47.9518 89.0495 46.1273 88.5549 44.2326C88.0913 42.4002 87.3733 40.6431 86.4224 39.0135C85.4905 37.4338 84.3403 36.1327 82.9714 35.1102C81.6027 34.0877 80.0272 33.5764 78.2454 33.5764C76.6533 33.5764 75.2628 34.0416 74.0885 34.9793C72.9143 35.917 71.9273 37.1163 71.1276 38.5628C70.3143 40.0509 69.7106 41.646 69.3337 43.3021C68.9398 45.0128 68.7406 46.6337 68.7357 48.165Z" fill="white"/>
</svg>
